<svg width="19" height="19" viewBox="0 0 19 19" fill="none" xmlns="http://www.w3.org/2000/svg">
<path d="M16.3015 10.4263C16.3371 10.1294 16.3609 9.82063 16.3609 9.5C16.3609 9.17938 16.3371 8.87063 16.2896 8.57375L18.2965 7.00625C18.4746 6.86375 18.5221 6.6025 18.4153 6.40062L16.5153 3.11125C16.3965 2.8975 16.1471 2.82625 15.9334 2.8975L13.5703 3.8475C13.0715 3.4675 12.549 3.15875 11.9671 2.92125L11.6109 0.40375C11.5753 0.16625 11.3734 0 11.1359 0H7.33589C7.09839 0 6.90839 0.16625 6.87277 0.40375L6.51652 2.92125C5.93464 3.15875 5.40027 3.47937 4.91339 3.8475L2.55027 2.8975C2.33652 2.81438 2.08714 2.8975 1.96839 3.11125L0.0683945 6.40062C-0.0503555 6.61437 -0.00285536 6.86375 0.187145 7.00625L2.19402 8.57375C2.14652 8.87063 2.11089 9.19125 2.11089 9.5C2.11089 9.80875 2.13464 10.1294 2.18214 10.4263L0.175269 11.9938C-0.00285564 12.1363 -0.0503555 12.3975 0.0565195 12.5994L1.95652 15.8888C2.07527 16.1025 2.32464 16.1738 2.53839 16.1025L4.90152 15.1525C5.40027 15.5325 5.92277 15.8413 6.50464 16.0788L6.86089 18.5962C6.90839 18.8337 7.09839 19 7.33589 19H11.1359C11.3734 19 11.5753 18.8337 11.599 18.5962L11.9553 16.0788C12.5371 15.8413 13.0715 15.5206 13.5584 15.1525L15.9215 16.1025C16.1353 16.1856 16.3846 16.1025 16.5034 15.8888L18.4034 12.5994C18.5221 12.3856 18.4746 12.1363 18.2846 11.9938L16.3015 10.4263ZM9.23589 13.0625C7.27652 13.0625 5.67339 11.4594 5.67339 9.5C5.67339 7.54063 7.27652 5.9375 9.23589 5.9375C11.1953 5.9375 12.7984 7.54063 12.7984 9.5C12.7984 11.4594 11.1953 13.0625 9.23589 13.0625Z" fill="white"/>
</svg>
